<svg xmlns="http://www.w3.org/2000/svg" viewBox="0 0 1200 400" width="1200" height="400">
  <defs>
    <linearGradient id="bgGrad" x1="0%" y1="0%" x2="100%" y2="100%">
      <stop offset="0%" style="stop-color:#0c1a3a"/>
      <stop offset="100%" style="stop-color:#1a3a6e"/>
    </linearGradient>
    <linearGradient id="accentGrad" x1="0%" y1="0%" x2="100%" y2="0%">
      <stop offset="0%" style="stop-color:#2b5cf0"/>
      <stop offset="100%" style="stop-color:#5b8aff"/>
    </linearGradient>
  </defs>
  <rect width="1200" height="400" rx="18" fill="url(#bgGrad)"/>

  <!-- Grid lines -->
  <g opacity="0.07" stroke="#fff" stroke-width="1">
    <line x1="0" y1="80" x2="1200" y2="80"/>
    <line x1="0" y1="160" x2="1200" y2="160"/>
    <line x1="0" y1="240" x2="1200" y2="240"/>
    <line x1="0" y1="320" x2="1200" y2="320"/>
    <line x1="200" y1="0" x2="200" y2="400"/>
    <line x1="400" y1="0" x2="400" y2="400"/>
    <line x1="600" y1="0" x2="600" y2="400"/>
    <line x1="800" y1="0" x2="800" y2="400"/>
    <line x1="1000" y1="0" x2="1000" y2="400"/>
  </g>

  <!-- Satellite orbit rings -->
  <ellipse cx="900" cy="200" rx="220" ry="130" fill="none" stroke="#2b5cf0" stroke-width="1.5" opacity="0.4"/>
  <ellipse cx="900" cy="200" rx="160" ry="95" fill="none" stroke="#5b8aff" stroke-width="1" opacity="0.3"/>
  <!-- Globe -->
  <circle cx="900" cy="200" r="70" fill="none" stroke="#2b5cf0" stroke-width="2" opacity="0.6"/>
  <ellipse cx="900" cy="200" rx="35" ry="70" fill="none" stroke="#2b5cf0" stroke-width="1.5" opacity="0.4"/>
  <line x1="830" y1="200" x2="970" y2="200" stroke="#2b5cf0" stroke-width="1.5" opacity="0.4"/>
  <line x1="900" y1="130" x2="900" y2="270" stroke="#2b5cf0" stroke-width="1.5" opacity="0.4"/>
  <!-- Satellite dot -->
  <circle cx="1060" cy="130" r="8" fill="url(#accentGrad)"/>
  <rect x="1050" y="124" width="20" height="12" rx="2" fill="#fff" opacity="0.15"/>

  <!-- Logo icon -->
  <rect x="60" y="60" width="52" height="52" rx="12" fill="#2b5cf0"/>
  <circle cx="86" cy="82" r="12" fill="none" stroke="#fff" stroke-width="2.5"/>
  <circle cx="86" cy="82" r="4.5" fill="#fff"/>
  <line x1="86" y1="70" x2="86" y2="64" stroke="#fff" stroke-width="2.5" stroke-linecap="round"/>
  <line x1="86" y1="94" x2="86" y2="100" stroke="#fff" stroke-width="2.5" stroke-linecap="round"/>
  <line x1="74" y1="82" x2="68" y2="82" stroke="#fff" stroke-width="2.5" stroke-linecap="round"/>
  <line x1="98" y1="82" x2="104" y2="82" stroke="#fff" stroke-width="2.5" stroke-linecap="round"/>

  <!-- Main text -->
  <text x="130" y="96" font-family="Inter, system-ui, sans-serif" font-size="32" font-weight="700" fill="#fff">NasaVPN</text>
  <text x="130" y="122" font-family="Inter, system-ui, sans-serif" font-size="14" fill="#93b4ff" opacity="0.9">Blog — AI Acceleration &amp; Streaming</text>

  <!-- Center tagline -->
  <text x="420" y="175" font-family="Inter, system-ui, sans-serif" font-size="38" font-weight="700" fill="#fff" text-anchor="middle">专属 IP · 私有节点 · 稳定在线</text>
  <text x="420" y="218" font-family="Inter, system-ui, sans-serif" font-size="16" fill="#93b4ff" text-anchor="middle">Dedicated IP · Private Node · 99.9% Uptime</text>

  <!-- Feature pills -->
  <rect x="190" y="250" width="140" height="36" rx="18" fill="#2b5cf0" opacity="0.3" stroke="#2b5cf0" stroke-width="1"/>
  <text x="260" y="273" font-family="Inter, system-ui, sans-serif" font-size="13" fill="#fff" text-anchor="middle">ChatGPT 加速</text>
  <rect x="350" y="250" width="140" height="36" rx="18" fill="#2b5cf0" opacity="0.3" stroke="#2b5cf0" stroke-width="1"/>
  <text x="420" y="273" font-family="Inter, system-ui, sans-serif" font-size="13" fill="#fff" text-anchor="middle">Claude 稳定连接</text>
  <rect x="510" y="250" width="140" height="36" rx="18" fill="#2b5cf0" opacity="0.3" stroke="#2b5cf0" stroke-width="1"/>
  <text x="580" y="273" font-family="Inter, system-ui, sans-serif" font-size="13" fill="#fff" text-anchor="middle">Netflix 4K 加速</text>

  <!-- Status bar -->
  <rect x="60" y="330" width="680" height="44" rx="10" fill="#fff" opacity="0.06"/>
  <circle cx="90" cy="352" r="7" fill="#34d399"/>
  <text x="108" y="357" font-family="Inter, system-ui, sans-serif" font-size="13" fill="#fff">Connected — US West · Dedicated IP · Latency 38ms</text>
</svg>
